<?xml version="1.0" encoding="utf-8"?>
<!-- Generator: Adobe Illustrator 23.0.0, SVG Export Plug-In . SVG Version: 6.00 Build 0)  -->
<svg version="1.1" id="Layer_1" xmlns="http://www.w3.org/2000/svg" xmlns:xlink="http://www.w3.org/1999/xlink" x="0px" y="0px"
	 viewBox="0 0 100 27" style="enable-background:new 0 0 100 27;" xml:space="preserve">
<style type="text/css">
	.st0{fill:#1E8ED3;}
	.st1{fill:#999999;}
</style>
<path class="st0" d="M54.62,22.61V0.53h5.15v22.09H54.62z M65.94,7.2h0.09c0.65-1.55,1.74-2.54,3.54-2.54
	c2.48,0,3.32,1.64,3.32,3.47v6.33h-4.9v-4.31c0-0.71-0.22-1.46-1.02-1.46s-1.02,0.74-1.02,1.46v12.47h-4.9V4.87h4.9V7.2z
	 M81.21,20.54h-0.06c-0.59,1.27-1.49,2.29-3.44,2.29c-2.14,0-3.44-1.3-3.44-3.63v-2.64c0-4.65,6.95-4.1,6.95-7.38
	c0-0.71-0.22-1.3-1.02-1.3s-1.02,0.59-1.02,1.3v1.95h-4.9V9.49c0-3.57,2.98-4.84,5.92-4.84s5.92,1.27,5.92,4.84v13.12h-4.9V20.54z
	 M79.16,18.05c0,0.62,0.43,0.93,0.9,0.93c1.02,0,1.15-0.68,1.15-2.26v-3.07c-0.96,0.68-2.05,1.09-2.05,2.48V18.05z M99.32,26.58
	h-4.9v-6.3h-0.06c-0.43,1.61-1.68,2.54-3.47,2.54c-2.48,0-3.41-1.67-3.41-3.85v-9.8c0-2.23,0.81-4.53,3.5-4.53
	c1.8,0,3.13,0.68,3.38,2.54h0.06V4.87h4.9V26.58z M92.37,17.59c0,0.78,0.43,1.21,1.02,1.21c0.59,0,1.02-0.43,1.02-1.21V9.9
	c0-0.78-0.43-1.21-1.02-1.21c-0.59,0-1.02,0.43-1.02,1.21V17.59z"/>
<path class="st1" d="M5.58,14.3v3.6c0,1.05,0.37,1.71,1.02,1.71c0.78,0,1.02-0.65,1.02-1.71v-2.3h4.9v2.61
	c0,3.35-2.48,4.62-5.93,4.62c-3.13,0-5.92-1.43-5.92-4.71V9.65c0-3.2,2.11-4.99,5.92-4.99c3.13,0,5.93,1.18,5.93,4.99v4.65H5.58z
	 M7.63,11.35V8.93c0-0.68-0.34-1.05-1.02-1.05S5.58,8.25,5.58,8.93v2.42H7.63z M13.9,22.61V0.53h6.3c4.09,0,6.73,0.93,6.73,4.75
	v4.03c0,3.32-2.95,4.78-5.99,4.78h-1.89v8.53H13.9z M19.05,10.92h0.81c1.8,0,1.92-0.99,1.92-3.6s-0.12-3.63-1.92-3.63h-0.81V10.92z
	 M35.24,20.54h-0.06c-0.59,1.27-1.49,2.29-3.44,2.29c-2.14,0-3.44-1.3-3.44-3.63v-2.64c0-4.65,6.95-4.1,6.95-7.38
	c0-0.71-0.22-1.3-1.02-1.3s-1.02,0.59-1.02,1.3v1.95h-4.9V9.49c0-3.57,2.98-4.84,5.92-4.84c2.95,0,5.93,1.27,5.93,4.84v13.12h-4.9
	V20.54z M33.19,18.05c0,0.62,0.43,0.93,0.9,0.93c1.02,0,1.15-0.68,1.15-2.26v-3.07c-0.96,0.68-2.05,1.09-2.05,2.48V18.05z
	 M46.16,4.87l1.64,12.25h0.06l1.64-12.25h4.13l-3.97,18.71c-0.4,2.02-1.83,3.01-3.97,3.01h-3.94v-3.23h2.54
	c0.65,0,0.87-0.15,0.87-0.5c0-0.25-0.06-0.46-0.12-0.78L41.19,4.87H46.16z"/>
</svg>
